<svg xmlns="http://www.w3.org/2000/svg" viewBox="0 0 66 66" fill="none">
  <path d="M0 33C0 14.7746 14.7746 0 33 0C51.2254 0 66 14.7746 66 33C66 51.2254 51.2254 66 33 66C14.7746 66 0 51.2254 0 33Z" fill="#FF6D5A"/>
  <path d="M44.5 35.33V19H24.75C21.3 19 18.5 21.8 18.5 25.25V40.92C18.5 44.37 21.3 47.17 24.75 47.17H41.5C43.05 47.17 44.5 45.87 44.5 44.17V35.33ZM24.75 22H41.5V32.33H24.75C22.95 32.33 21.5 30.88 21.5 29.08C21.5 25.63 24.75 22 24.75 22ZM41.5 44.17H24.75C22.95 44.17 21.5 42.72 21.5 40.92V35.49C22.5 35.94 23.6 36.2 24.75 36.2H41.5V44.17Z" fill="white"/>
</svg>

